<?xml version="1.0" standalone="no"?>
<!DOCTYPE svg PUBLIC "-//W3C//DTD SVG 20010904//EN"
 "http://www.w3.org/TR/2001/REC-SVG-20010904/DTD/svg10.dtd">
<svg version="1.0" xmlns="http://www.w3.org/2000/svg"
 width="16.000000pt" height="16.000000pt" viewBox="0 0 16.000000 16.000000"
 preserveAspectRatio="xMidYMid meet">
<metadata>
Created by potrace 1.11, written by Peter Selinger 2001-2013
</metadata>
<g transform="translate(0.000000,16.000000) scale(0.003456,-0.003456)"
fill="#000000" stroke="none">
<path d="M1195 4444 c-104 -102 -271 -266 -371 -364 l-181 -179 3 -1793 c1
-986 3 -1796 3 -1800 1 -4 11 -10 24 -14 12 -4 45 -17 72 -30 103 -48 375
-132 515 -159 197 -39 309 -57 445 -71 33 -3 74 -8 90 -10 97 -12 296 -19 555
-18 365 0 499 9 805 54 126 19 163 25 215 35 14 3 34 7 46 9 180 34 526 141
545 168 6 10 13 1201 13 2586 l0 1043 -369 364 -370 365 -925 0 -925 0 -190
-186z m2696 -903 c0 -157 1 -472 2 -699 3 -411 3 -413 -18 -408 -82 22 -344
80 -455 100 -519 95 -1078 112 -1600 51 -339 -41 -788 -136 -1077 -229 l-22
-7 -1 368 c-1 202 -2 533 -3 735 -1 238 2 369 8 372 5 1 720 3 1588 3 l1577 0
1 -286z"/>
</g>
</svg>
